# xmcd
#
# Track frame offsets: 
#        150
#        674
#        20157
#        35728
#        54325
#        69997
#        87423
#        101959
#        119229
#        133300
#        149225
#        170320
#        188155
#        207959
#        222311
#        238219
#        249962
#        264157
#        286315
#        301478
#        317245
#
# Disc length: 4435 seconds
#
# Revision: 0
# Processed by: cddbd v1.5.2PL0 Copyright (c) Steve Scherf et al.
# Submitted via: ExactAudioCopy v0.99pb4
#
DISCID=4a115115
DTITLE=Various Artist - prevue promo 1069A-3
DYEAR=2001
DGENRE=pop
TTITLE0=blank - data
TTITLE1=Jo Dee Messina - Burn(Pop Mix Edit  Movie "Driven")
TTITLE2=Tamara Walker - Didn't We Love( Movie "Coyote Ugly")
TTITLE3=Silk - We're Calling U
TTITLE4=Hoku - Perfect Day  (Movie "Legally Blonde")
TTITLE5=Christina Milian - AM To PM
TTITLE6=Ricky Martin - Loaded (George Noriega Radio Edit)
TTITLE7=Mariah feat. Cameo - Loverboy
TTITLE8=Olivia - Are U Capable
TTITLE9=Deborah Cox - Absolutely Not
TTITLE10=DJ Skribble - Essential Spring Break-Summer 2001 Megamix
TTITLE11=Nivea - Don't Mess With The Radio
TTITLE12=D12 - Purple Hills (Purple Pills -Lyrics!! - "Clean Radio Edi
TTITLE12=t")
TTITLE13=Swag - I'll Get By
TTITLE14=Turin Brakes - Underdog (Save Me)
TTITLE15=Stone Temple Pilots - Days Of The Week
TTITLE16=Idlewild - Little Discourage
TTITLE17=Van Zant II - At Least I'm Free
TTITLE18=Cake - Short Skirt - Long Jacket
TTITLE19=Ike Reilly - Last Time(Lyrics!!! - "Clean Radio Edit")
TTITLE20=Speak No Evil - Downside
EXTD=
EXTT0=
EXTT1=
EXTT2=
EXTT3=
EXTT4=
EXTT5=
EXTT6=
EXTT7=
EXTT8=
EXTT9=
EXTT10=
EXTT11=
EXTT12=
EXTT13=
EXTT14=
EXTT15=
EXTT16=
EXTT17=
EXTT18=
EXTT19=
EXTT20=
PLAYORDER=
